<?xml version="1.0" encoding="UTF-8" standalone="no"?>
<!-- Created with Inkscape (http://www.inkscape.org/) -->

<svg
   xmlns:dc="http://purl.org/dc/elements/1.1/"
   xmlns:cc="http://creativecommons.org/ns#"
   xmlns:rdf="http://www.w3.org/1999/02/22-rdf-syntax-ns#"
   xmlns:svg="http://www.w3.org/2000/svg"
   xmlns="http://www.w3.org/2000/svg"
   version="1.1"
   width="261"
   height="67"
   id="svg3108">
  <metadata
     id="metadata3114">
    <rdf:RDF>
      <cc:Work
         rdf:about="">
        <dc:format>image/svg+xml</dc:format>
        <dc:type
           rdf:resource="http://purl.org/dc/dcmitype/StillImage" />
        <dc:title></dc:title>
      </cc:Work>
    </rdf:RDF>
  </metadata>
  <defs
     id="defs3112" />
  <path
     d="m 252.82944,62.527619 c -3.69777,-1.12205 -6.83966,-2.9099 -11.9416,-6.79522 -3.89371,-2.9652 -5.01637,-3.3447 -8.33264,-2.8167 -2.10796,0.33562 -6.0305,1.72395 -8.71676,3.08518 -7.84543,3.97558 -10.83418,2.90774 -9.00601,-3.21773 1.8628,-6.24148 5.66373,-11.3073 8.48398,-11.3073 2.12974,0 1.97185,2.83104 -0.3723,6.67549 l -1.93625,3.1755 5.68999,-1.995 c 8.75205,-3.0686 13.29208,-2.24151 21.37787,3.89456 3.67833,2.79138 7.61583,5.36976 8.75,5.72973 2.55232,0.81008 2.81608,4.55675 0.31212,4.43377 -0.9625,-0.0473 -2.90128,-0.4353 -4.3084,-0.86228 z M 10.507148,60.441429 C 3.3913018,58.310849 0.88028375,51.981569 3.3845748,42.488249 6.4188738,30.985759 20.531765,6.070939 23.673845,6.669679 c 2.74589,0.52323 2.62858,4.44635 -0.22497,7.52378 -4.54844,4.90528 -14.8061922,25.58481 -16.0617902,32.38039 -0.547792,2.96479 -0.225894,4.10874 1.829044,6.5 2.4722672,2.8769 2.6027142,2.90487 15.0827762,3.23356 11.30003,0.29761 12.58894,0.51458 12.58894,2.11915 0,1.28882 -1.04635,1.96056 -3.75,2.40744 -5.29506,0.87522 -19.20216,0.63397 -22.630697,-0.39257 z m 154.630692,0.37214 c -1.84107,-0.74289 -1.52314,-6.21829 0.75084,-12.93117 2.97191,-8.77322 4.08626,-10.53782 6.44185,-10.20085 3.16827,0.45322 3.02325,4.53578 -0.39843,11.2165 -1.66826,3.25721 -2.83117,6.12423 -2.58425,6.37115 0.24693,0.24692 3.02017,-1.00216 6.16277,-2.77573 4.73465,-2.67208 6.32761,-3.10317 9.29552,-2.51559 1.96993,0.39 5.98043,0.63379 8.91222,0.54176 7.49925,-0.23541 11.35561,0.74874 10.96346,2.79789 -0.25235,1.31866 -2.05595,1.80489 -8.80567,2.3739 -4.66857,0.39357 -9.92708,0.32389 -11.68558,-0.15484 -2.74126,-0.74626 -3.95357,-0.38844 -8.5,2.50883 -5.0275,3.20384 -7.72158,3.91054 -10.55273,2.76815 z m -34.17742,-5.97258 c -1.13992,-1.44917 -2.07258,-3.85762 -2.07258,-5.35211 0,-6.40125 9.14893,-14.28048 15.99168,-13.77233 4.82064,0.35799 5.38241,3.30871 0.81399,4.27549 -7.43669,1.57378 -13.51601,7.71805 -10.83396,10.94972 2.44229,2.94278 9.26832,1.24131 13.41866,-3.34477 1.53852,-1.70004 1.65556,-2.36087 0.63577,-3.58965 -1.95173,-2.35168 -0.47404,-4.71564 2.71817,-4.34846 2.29896,0.26444 2.8077,0.85662 3.0695,3.57299 0.954,9.89864 -17.85289,19.09494 -23.74123,11.60912 z m -22.51722,-0.27557 c -0.90456,-1.46361 2.08325,-11.13998 6.66629,-21.58957 2.171,-4.95 4.57059,-10.70533 5.33243,-12.78961 l 1.38515,-3.78962 -3.71961,0.57749 c -10.32166,1.60248 -15.45148,2.94239 -15.91786,4.15775 -0.28366,0.73919 -1.3961,1.34399 -2.472105,1.34399 -1.59852,0 -1.89905,-0.5836 -1.64301,-3.19061 0.2863,-2.91507 0.74281,-3.29965 5.286245,-4.45325 16.94388,-4.30213 35.52711,-3.65373 35.52711,1.2396 0,1.28403 -1.08113,1.41883 -6.83333,0.85202 l -6.83334,-0.67333 -0.0256,2.86278 c -0.0141,1.57454 -2.17646,7.81279 -4.80519,13.86279 -2.62874,6.05 -5.56536,13.475 -6.52583,16.5 -1.65093,5.19958 -3.99393,7.39919 -5.42135,5.08957 z M 59.162405,43.559609 c -5.78697,-0.70285 -7.64669,-1.94231 -7.09333,-4.72754 0.41527,-2.09017 3.56358,-2.2616 10.31877,-0.56188 2.2,0.55355 6.5875,1.30866 9.75,1.67802 4.7796,0.55822 5.75,0.99694 5.75,2.5996 0,1.72754 -0.70195,1.9134 -6.75,1.78724 -3.7125,-0.0774 -9.10145,-0.42639 -11.97544,-0.77544 z"
     id="path3118"
     style="fill:#000000" />
</svg>
